<svg width="39" height="39" viewBox="0 0 39 39" fill="none" xmlns="http://www.w3.org/2000/svg">
<rect width="39" height="39" rx="19.5" fill="#F7F9FD"/>
<path d="M19.5003 11.1665C14.8978 11.1665 11.167 14.8973 11.167 19.4998C11.167 23.659 14.2145 27.1065 18.1987 27.7323V21.9082H16.082V19.4998H18.1987V17.664C18.1987 15.5757 19.442 14.4223 21.3462 14.4223C22.2578 14.4223 23.2112 14.5848 23.2112 14.5848V16.6348H22.1612C21.1253 16.6348 20.8028 17.2773 20.8028 17.9365V19.4998H23.1137L22.7445 21.9082H20.8028V27.7323C24.7862 27.1073 27.8337 23.6582 27.8337 19.4998C27.8337 14.8973 24.1028 11.1665 19.5003 11.1665Z" fill="#160042"/>
</svg>
