<svg width="190" height="39" viewBox="0 0 190 39" fill="none" xmlns="http://www.w3.org/2000/svg">
<path d="M29.2737 12.9525C29.2737 12.9525 28.9241 8.94188 26.4431 5.93862C26.4431 5.93862 24.669 3.23332 21.2185 1.5165C17.765 -0.198751 14.181 -0.0679003 13.2069 0.0802921C13.2069 0.0802921 8.97815 0.565859 6.23925 2.74776C6.23925 2.74776 3.27508 4.99587 1.8567 7.73585C1.73086 7.97863 1.60191 8.21826 1.46676 8.45474C1.01157 9.26349 0.124492 11.2105 0.00642256 14.2595C0.00642256 14.2595 -0.136504 18.2055 0.926122 20.8083C0.926122 20.8083 2.48899 25.8453 4.60337 28.4386C4.60337 28.4386 7.48986 32.618 9.438 34.4089C9.438 34.4089 12.3323 37.4232 13.0438 37.8631C13.0438 37.8631 14.2913 39.0533 14.8972 38.9981C15.5792 38.9367 17.7106 36.7217 18.6288 35.8073C19.5485 34.8929 20.9824 33.3258 21.478 32.7662C21.9751 32.2065 23.1884 30.6584 23.684 30.0057C24.1812 29.353 25.2842 27.7103 25.7425 26.9094C26.2023 26.107 27.2323 24.1852 27.5446 23.3828C27.8568 22.5803 28.5559 20.8272 28.9055 19.2791C28.9055 19.2791 29.6776 15.9952 29.2737 12.9541V12.9525ZM24.9579 22.347C24.7078 23.0091 23.8875 24.5951 23.5209 25.2588C23.1543 25.921 22.2734 27.2768 21.8772 27.8159C21.4811 28.3551 20.5132 29.6336 20.1171 30.0956C19.7209 30.5575 18.5775 31.8518 17.8427 32.607C17.1079 33.3621 15.4083 35.1909 14.8645 35.2413C14.3798 35.287 13.3856 34.3033 13.3856 34.3033C13.0205 34.1819 10.5084 31.4514 10.5084 31.4514C9.31838 30.3194 7.69182 28.0351 6.99272 27.0245H12.1785C12.6803 27.8175 13.5549 28.3425 14.5523 28.3425C16.112 28.3425 17.3751 27.0592 17.3751 25.478C17.3751 23.8967 16.1105 22.6134 14.5523 22.6134C13.5549 22.6134 12.6803 23.14 12.1785 23.9314H5.13779C4.27091 22.068 3.71784 20.2234 3.71784 20.2234C3.33412 19.1088 3.14769 17.4093 3.05914 16.2143C2.95195 14.7703 3.07623 13.3151 3.45996 11.9199C3.86543 10.4411 4.36412 9.67181 4.36412 9.67181C5.318 7.25344 7.95747 5.31275 7.95747 5.31275C10.1433 3.51079 13.5176 3.11035 13.5176 3.11035C14.2944 2.98739 17.156 2.87861 19.9105 4.29589C22.6649 5.71318 24.0802 7.9471 24.0802 7.9471C26.0609 10.427 26.339 13.7392 26.339 13.7392C26.3468 13.8023 26.3546 13.8669 26.3608 13.93H16.9245C16.4212 13.1417 15.5481 12.6183 14.5538 12.6183C12.9941 12.6183 11.731 13.9016 11.731 15.4828C11.731 17.0641 12.9956 18.3474 14.5538 18.3474C15.5543 18.3474 16.4305 17.8192 16.9323 17.0231H26.3406C26.2256 18.1582 26.0439 18.9606 26.0439 18.9606C25.7658 20.2392 25.208 21.6864 24.9579 22.3486V22.347Z" fill="white"/>
<path d="M46.2106 27.154C45.14 27.154 44.172 26.9707 43.3066 26.604C42.456 26.2373 41.7813 25.7093 41.2826 25.02C40.784 24.3307 40.5273 23.5167 40.5126 22.578H43.8126C43.8566 23.2087 44.0766 23.7073 44.4726 24.074C44.8833 24.4407 45.4406 24.624 46.1446 24.624C46.8633 24.624 47.428 24.4553 47.8386 24.118C48.2493 23.766 48.4546 23.3113 48.4546 22.754C48.4546 22.2993 48.3153 21.9253 48.0366 21.632C47.758 21.3387 47.406 21.1113 46.9806 20.95C46.57 20.774 45.998 20.5833 45.2646 20.378C44.2673 20.0847 43.4533 19.7987 42.8226 19.52C42.2066 19.2267 41.6713 18.794 41.2166 18.222C40.7766 17.6353 40.5566 16.858 40.5566 15.89C40.5566 14.9807 40.784 14.1887 41.2386 13.514C41.6933 12.8393 42.3313 12.326 43.1526 11.974C43.974 11.6073 44.9126 11.424 45.9686 11.424C47.5526 11.424 48.836 11.8127 49.8186 12.59C50.816 13.3527 51.366 14.4233 51.4686 15.802H48.0806C48.0513 15.274 47.824 14.8413 47.3986 14.504C46.988 14.152 46.438 13.976 45.7486 13.976C45.1473 13.976 44.6633 14.13 44.2966 14.438C43.9446 14.746 43.7686 15.1933 43.7686 15.78C43.7686 16.1907 43.9006 16.5353 44.1646 16.814C44.4433 17.078 44.7806 17.298 45.1766 17.474C45.5873 17.6353 46.1593 17.826 46.8926 18.046C47.89 18.3393 48.704 18.6327 49.3346 18.926C49.9653 19.2193 50.508 19.6593 50.9626 20.246C51.4173 20.8327 51.6446 21.6027 51.6446 22.556C51.6446 23.3773 51.432 24.14 51.0066 24.844C50.5813 25.548 49.958 26.1127 49.1366 26.538C48.3153 26.9487 47.34 27.154 46.2106 27.154ZM55.8769 13.36C55.3342 13.36 54.8795 13.1913 54.5129 12.854C54.1609 12.502 53.9849 12.0693 53.9849 11.556C53.9849 11.0427 54.1609 10.6173 54.5129 10.28C54.8795 9.928 55.3342 9.752 55.8769 9.752C56.4195 9.752 56.8669 9.928 57.2189 10.28C57.5855 10.6173 57.7689 11.0427 57.7689 11.556C57.7689 12.0693 57.5855 12.502 57.2189 12.854C56.8669 13.1913 56.4195 13.36 55.8769 13.36ZM57.3949 14.812V27H54.3149V14.812H57.3949ZM67.1919 14.636C68.6439 14.636 69.8173 15.098 70.7119 16.022C71.6066 16.9313 72.0539 18.2073 72.0539 19.85V27H68.9739V20.268C68.9739 19.3 68.7319 18.5593 68.2479 18.046C67.7639 17.518 67.1039 17.254 66.2679 17.254C65.4173 17.254 64.7426 17.518 64.2439 18.046C63.7599 18.5593 63.5179 19.3 63.5179 20.268V27H60.4379V14.812H63.5179V16.33C63.9286 15.802 64.4493 15.3913 65.0799 15.098C65.7253 14.79 66.4293 14.636 67.1919 14.636ZM79.7568 14.614C80.6662 14.614 81.4655 14.7973 82.1548 15.164C82.8442 15.516 83.3868 15.978 83.7828 16.55V14.812H86.8848V27.088C86.8848 28.2173 86.6575 29.222 86.2028 30.102C85.7482 30.9967 85.0662 31.7007 84.1568 32.214C83.2475 32.742 82.1475 33.006 80.8568 33.006C79.1262 33.006 77.7035 32.6027 76.5888 31.796C75.4888 30.9893 74.8655 29.8893 74.7188 28.496H77.7768C77.9382 29.0533 78.2828 29.4933 78.8108 29.816C79.3535 30.1533 80.0062 30.322 80.7688 30.322C81.6635 30.322 82.3895 30.0507 82.9468 29.508C83.5042 28.98 83.7828 28.1733 83.7828 27.088V25.196C83.3868 25.768 82.8368 26.2447 82.1328 26.626C81.4435 27.0073 80.6515 27.198 79.7568 27.198C78.7302 27.198 77.7915 26.934 76.9408 26.406C76.0902 25.878 75.4155 25.1373 74.9168 24.184C74.4328 23.216 74.1908 22.1087 74.1908 20.862C74.1908 19.63 74.4328 18.5373 74.9168 17.584C75.4155 16.6307 76.0828 15.8973 76.9188 15.384C77.7695 14.8707 78.7155 14.614 79.7568 14.614ZM83.7828 20.906C83.7828 20.158 83.6362 19.52 83.3428 18.992C83.0495 18.4493 82.6535 18.0387 82.1548 17.76C81.6562 17.4667 81.1208 17.32 80.5488 17.32C79.9768 17.32 79.4488 17.4593 78.9648 17.738C78.4808 18.0167 78.0848 18.4273 77.7768 18.97C77.4835 19.498 77.3368 20.1287 77.3368 20.862C77.3368 21.5953 77.4835 22.2407 77.7768 22.798C78.0848 23.3407 78.4808 23.7587 78.9648 24.052C79.4635 24.3453 79.9915 24.492 80.5488 24.492C81.1208 24.492 81.6562 24.3527 82.1548 24.074C82.6535 23.7807 83.0495 23.37 83.3428 22.842C83.6362 22.2993 83.7828 21.654 83.7828 20.906ZM89.101 20.862C89.101 19.63 89.343 18.5373 89.827 17.584C90.3257 16.6307 90.993 15.8973 91.829 15.384C92.6797 14.8707 93.6257 14.614 94.667 14.614C95.5763 14.614 96.3683 14.7973 97.043 15.164C97.7323 15.5307 98.2823 15.9927 98.693 16.55V14.812H101.795V27H98.693V25.218C98.297 25.79 97.747 26.2667 97.043 26.648C96.3537 27.0147 95.5543 27.198 94.645 27.198C93.6183 27.198 92.6797 26.934 91.829 26.406C90.993 25.878 90.3257 25.1373 89.827 24.184C89.343 23.216 89.101 22.1087 89.101 20.862ZM98.693 20.906C98.693 20.158 98.5463 19.52 98.253 18.992C97.9597 18.4493 97.5637 18.0387 97.065 17.76C96.5663 17.4667 96.031 17.32 95.459 17.32C94.887 17.32 94.359 17.4593 93.875 17.738C93.391 18.0167 92.995 18.4273 92.687 18.97C92.3937 19.498 92.247 20.1287 92.247 20.862C92.247 21.5953 92.3937 22.2407 92.687 22.798C92.995 23.3407 93.391 23.7587 93.875 24.052C94.3737 24.3453 94.9017 24.492 95.459 24.492C96.031 24.492 96.5663 24.3527 97.065 24.074C97.5637 23.7807 97.9597 23.37 98.253 22.842C98.5463 22.2993 98.693 21.654 98.693 20.906ZM110.105 27.154C109.034 27.154 108.066 26.9707 107.201 26.604C106.35 26.2373 105.676 25.7093 105.177 25.02C104.678 24.3307 104.422 23.5167 104.407 22.578H107.707C107.751 23.2087 107.971 23.7073 108.367 24.074C108.778 24.4407 109.335 24.624 110.039 24.624C110.758 24.624 111.322 24.4553 111.733 24.118C112.144 23.766 112.349 23.3113 112.349 22.754C112.349 22.2993 112.21 21.9253 111.931 21.632C111.652 21.3387 111.3 21.1113 110.875 20.95C110.464 20.774 109.892 20.5833 109.159 20.378C108.162 20.0847 107.348 19.7987 106.717 19.52C106.101 19.2267 105.566 18.794 105.111 18.222C104.671 17.6353 104.451 16.858 104.451 15.89C104.451 14.9807 104.678 14.1887 105.133 13.514C105.588 12.8393 106.226 12.326 107.047 11.974C107.868 11.6073 108.807 11.424 109.863 11.424C111.447 11.424 112.73 11.8127 113.713 12.59C114.71 13.3527 115.26 14.4233 115.363 15.802H111.975C111.946 15.274 111.718 14.8413 111.293 14.504C110.882 14.152 110.332 13.976 109.643 13.976C109.042 13.976 108.558 14.13 108.191 14.438C107.839 14.746 107.663 15.1933 107.663 15.78C107.663 16.1907 107.795 16.5353 108.059 16.814C108.338 17.078 108.675 17.298 109.071 17.474C109.482 17.6353 110.054 17.826 110.787 18.046C111.784 18.3393 112.598 18.6327 113.229 18.926C113.86 19.2193 114.402 19.6593 114.857 20.246C115.312 20.8327 115.539 21.6027 115.539 22.556C115.539 23.3773 115.326 24.14 114.901 24.844C114.476 25.548 113.852 26.1127 113.031 26.538C112.21 26.9487 111.234 27.154 110.105 27.154ZM121.795 17.342V23.238C121.795 23.6487 121.891 23.9493 122.081 24.14C122.287 24.316 122.624 24.404 123.093 24.404H124.523V27H122.587C119.991 27 118.693 25.7387 118.693 23.216V17.342H117.241V14.812H118.693V11.798H121.795V14.812H124.523V17.342H121.795ZM125.947 20.862C125.947 19.63 126.189 18.5373 126.673 17.584C127.171 16.6307 127.839 15.8973 128.675 15.384C129.525 14.8707 130.471 14.614 131.513 14.614C132.422 14.614 133.214 14.7973 133.889 15.164C134.578 15.5307 135.128 15.9927 135.539 16.55V14.812H138.641V27H135.539V25.218C135.143 25.79 134.593 26.2667 133.889 26.648C133.199 27.0147 132.4 27.198 131.491 27.198C130.464 27.198 129.525 26.934 128.675 26.406C127.839 25.878 127.171 25.1373 126.673 24.184C126.189 23.216 125.947 22.1087 125.947 20.862ZM135.539 20.906C135.539 20.158 135.392 19.52 135.099 18.992C134.805 18.4493 134.409 18.0387 133.911 17.76C133.412 17.4667 132.877 17.32 132.305 17.32C131.733 17.32 131.205 17.4593 130.721 17.738C130.237 18.0167 129.841 18.4273 129.533 18.97C129.239 19.498 129.093 20.1287 129.093 20.862C129.093 21.5953 129.239 22.2407 129.533 22.798C129.841 23.3407 130.237 23.7587 130.721 24.052C131.219 24.3453 131.747 24.492 132.305 24.492C132.877 24.492 133.412 24.3527 133.911 24.074C134.409 23.7807 134.805 23.37 135.099 22.842C135.392 22.2993 135.539 21.654 135.539 20.906ZM153.309 14.812L145.763 32.764H142.485L145.125 26.692L140.241 14.812H143.695L146.841 23.326L150.031 14.812H153.309ZM159.633 27.198C158.636 27.198 157.741 27.022 156.949 26.67C156.157 26.3033 155.527 25.812 155.057 25.196C154.603 24.58 154.353 23.898 154.309 23.15H157.411C157.47 23.6193 157.697 24.008 158.093 24.316C158.504 24.624 159.01 24.778 159.611 24.778C160.198 24.778 160.653 24.6607 160.975 24.426C161.313 24.1913 161.481 23.8907 161.481 23.524C161.481 23.128 161.276 22.8347 160.865 22.644C160.469 22.4387 159.831 22.2187 158.951 21.984C158.042 21.764 157.294 21.5367 156.707 21.302C156.135 21.0673 155.637 20.708 155.211 20.224C154.801 19.74 154.595 19.0873 154.595 18.266C154.595 17.5913 154.786 16.9753 155.167 16.418C155.563 15.8607 156.121 15.4207 156.839 15.098C157.573 14.7753 158.431 14.614 159.413 14.614C160.865 14.614 162.024 14.9807 162.889 15.714C163.755 16.4327 164.231 17.408 164.319 18.64H161.371C161.327 18.156 161.122 17.7747 160.755 17.496C160.403 17.2027 159.927 17.056 159.325 17.056C158.768 17.056 158.335 17.1587 158.027 17.364C157.734 17.5693 157.587 17.8553 157.587 18.222C157.587 18.6327 157.793 18.948 158.203 19.168C158.614 19.3733 159.252 19.586 160.117 19.806C160.997 20.026 161.723 20.2533 162.295 20.488C162.867 20.7227 163.359 21.0893 163.769 21.588C164.195 22.072 164.415 22.7173 164.429 23.524C164.429 24.228 164.231 24.8587 163.835 25.416C163.454 25.9733 162.897 26.4133 162.163 26.736C161.445 27.044 160.601 27.198 159.633 27.198Z" fill="white"/>
</svg>
