<svg width="39" height="39" viewBox="0 0 39 39" fill="none" xmlns="http://www.w3.org/2000/svg">
<rect width="39" height="39" rx="19.5" fill="#F7F9FD"/>
<path d="M19.5003 11.1665C21.7645 11.1665 22.047 11.1748 22.9353 11.2165C23.8228 11.2582 24.427 11.3973 24.9587 11.604C25.5087 11.8157 25.972 12.1023 26.4353 12.5648C26.8591 12.9814 27.187 13.4853 27.3962 14.0415C27.602 14.5723 27.742 15.1773 27.7837 16.0648C27.8228 16.9532 27.8337 17.2357 27.8337 19.4998C27.8337 21.764 27.8253 22.0465 27.7837 22.9348C27.742 23.8223 27.602 24.4265 27.3962 24.9582C27.1876 25.5147 26.8596 26.0187 26.4353 26.4348C26.0186 26.8584 25.5148 27.1863 24.9587 27.3957C24.4278 27.6015 23.8228 27.7415 22.9353 27.7832C22.047 27.8223 21.7645 27.8332 19.5003 27.8332C17.2362 27.8332 16.9537 27.8248 16.0653 27.7832C15.1778 27.7415 14.5737 27.6015 14.042 27.3957C13.4856 27.1869 12.9816 26.859 12.5653 26.4348C12.1415 26.0183 11.8136 25.5144 11.6045 24.9582C11.3978 24.4273 11.2587 23.8223 11.217 22.9348C11.1778 22.0465 11.167 21.764 11.167 19.4998C11.167 17.2357 11.1753 16.9532 11.217 16.0648C11.2587 15.1765 11.3978 14.5732 11.6045 14.0415C11.813 13.485 12.141 12.9809 12.5653 12.5648C12.9817 12.1409 13.4857 11.8129 14.042 11.604C14.5737 11.3973 15.177 11.2582 16.0653 11.2165C16.9537 11.1773 17.2362 11.1665 19.5003 11.1665ZM19.5003 15.3332C18.3953 15.3332 17.3354 15.7722 16.554 16.5536C15.7726 17.335 15.3337 18.3948 15.3337 19.4998C15.3337 20.6049 15.7726 21.6647 16.554 22.4461C17.3354 23.2275 18.3953 23.6665 19.5003 23.6665C20.6054 23.6665 21.6652 23.2275 22.4466 22.4461C23.228 21.6647 23.667 20.6049 23.667 19.4998C23.667 18.3948 23.228 17.335 22.4466 16.5536C21.6652 15.7722 20.6054 15.3332 19.5003 15.3332ZM24.917 15.1248C24.917 14.8486 24.8072 14.5836 24.6119 14.3883C24.4165 14.1929 24.1516 14.0832 23.8753 14.0832C23.5991 14.0832 23.3341 14.1929 23.1388 14.3883C22.9434 14.5836 22.8337 14.8486 22.8337 15.1248C22.8337 15.4011 22.9434 15.6661 23.1388 15.8614C23.3341 16.0568 23.5991 16.1665 23.8753 16.1665C24.1516 16.1665 24.4165 16.0568 24.6119 15.8614C24.8072 15.6661 24.917 15.4011 24.917 15.1248ZM19.5003 16.9998C20.1634 16.9998 20.7993 17.2632 21.2681 17.7321C21.7369 18.2009 22.0003 18.8368 22.0003 19.4998C22.0003 20.1629 21.7369 20.7988 21.2681 21.2676C20.7993 21.7364 20.1634 21.9998 19.5003 21.9998C18.8373 21.9998 18.2014 21.7364 17.7326 21.2676C17.2637 20.7988 17.0003 20.1629 17.0003 19.4998C17.0003 18.8368 17.2637 18.2009 17.7326 17.7321C18.2014 17.2632 18.8373 16.9998 19.5003 16.9998Z" fill="#160042"/>
</svg>
