<svg xmlns="http://www.w3.org/2000/svg" width="24" height="24" viewBox="0 0 24 24" fill="none">
<path d="M16.2246 4.36147C18.4274 4.36147 19.8639 5.89381 19.8639 8.19231C19.8639 11.5443 16.895 14.609 12.6811 18.5356L12.2022 18.9187L11.7234 18.4398C7.50945 14.609 4.54054 11.5443 4.54054 8.19231C4.54054 5.89381 5.97711 4.36147 8.17985 4.36147C9.04179 4.36147 9.80796 4.64878 10.4784 5.31918C11.1488 5.89381 11.7234 5.98958 12.2022 5.98958C12.6811 5.98958 13.2557 5.89381 13.9261 5.31918C14.5965 4.64878 15.3627 4.36147 16.2246 4.36147ZM16.2246 2.44604C14.8838 2.44604 13.6388 2.9249 12.5853 3.88261C12.3938 4.07415 12.3938 4.07415 12.2022 4.07415C12.0107 4.07415 12.0107 4.07415 11.8192 3.88261C10.7657 2.9249 9.52064 2.44604 8.17985 2.44604C4.92363 2.44604 2.62512 4.84032 2.62512 8.19231C2.62512 12.502 6.16865 15.9498 10.4784 19.8764L12.2022 21.6003L13.9261 19.8764C18.2358 15.9498 21.7794 12.502 21.7794 8.19231C21.7794 4.84032 19.4808 2.44604 16.2246 2.44604Z" fill="white"/>
</svg>