<svg width="39" height="40" viewBox="0 0 39 40" fill="none" xmlns="http://www.w3.org/2000/svg">
<rect width="39" height="40" rx="19.5" fill="#F7F9FD"/>
<path d="M27.9683 14.7133C27.3321 14.9947 26.6575 15.1795 25.9667 15.2616C26.6948 14.8261 27.2398 14.1408 27.5 13.3333C26.8167 13.7399 26.0675 14.0249 25.2867 14.1791C24.7622 13.6179 24.067 13.2457 23.3091 13.1204C22.5513 12.9951 21.7733 13.1237 21.0961 13.4861C20.4188 13.8486 19.8803 14.4247 19.5643 15.1248C19.2482 15.8249 19.1723 16.6098 19.3483 17.3574C17.9626 17.288 16.607 16.9279 15.3694 16.3005C14.1319 15.6731 13.0401 14.7925 12.165 13.7158C11.8553 14.2478 11.6925 14.8526 11.6933 15.4683C11.6933 16.6766 12.3083 17.7441 13.2433 18.3691C12.69 18.3517 12.1489 18.2023 11.665 17.9333V17.9766C11.6652 18.7814 11.9437 19.5613 12.4532 20.1842C12.9628 20.807 13.6721 21.2345 14.4608 21.3941C13.9472 21.5333 13.4086 21.5538 12.8858 21.4541C13.1082 22.1468 13.5417 22.7526 14.1255 23.1867C14.7093 23.6208 15.4143 23.8614 16.1417 23.8749C15.4187 24.4427 14.591 24.8624 13.7057 25.1101C12.8205 25.3577 11.8951 25.4285 10.9825 25.3183C12.5756 26.3428 14.4301 26.8867 16.3242 26.8849C22.735 26.8849 26.2408 21.5741 26.2408 16.9683C26.2408 16.8183 26.2367 16.6666 26.23 16.5183C26.9124 16.0251 27.5013 15.4141 27.9692 14.7141L27.9683 14.7133Z" fill="#160042"/>
</svg>
